{
  "source": "C:\\Users\\Peter\\Desktop\\stuff\\MIUN\\quantitative_research\\video_compression\\videos\\BVI-HD\\BVI-HD_CDVL_videos\\ORIG\\Hamster_1920x1080_60fps.mp4",
  "output": "C:\\Users\\Peter\\Desktop\\stuff\\MIUN\\quantitative_research\\video_compression\\compressed_videos\\BVI-HD\\vp9\\3\\Hamster_1920x1080_60fps_vp9.webm",
  "codec": "vp9",
  "ok": "Input #0, mov,mp4,m4a,3gp,3g2,mj2, from 'C:\\Users\\Peter\\Desktop\\stuff\\MIUN\\quantitative_research\\video_compression\\videos\\BVI-HD\\BVI-HD_CDVL_videos\\ORIG\\Hamster_1920x1080_60fps.mp4':\n  Metadata:\n    major_brand     : isom\n    minor_version   : 512\n    compatible_brands: isomiso2avc1mp41\n    encoder         : Lavf54.28.101\n  Duration: 00:00:05.00, start: 0.000000, bitrate: 208485 kb/s\n  Stream #0:0[0x1](und): Video: h264 (High 4:4:4 Predictive) (avc1 / 0x31637661), yuv420p(progressive), 1920x1080, 208481 kb/s, 60 fps, 60 tbr, 60 tbn (default)\n    Metadata:\n      handler_name    : VideoHandler\n      vendor_id       : [0][0][0][0]\n[out#0/webm @ 000001ab5d149880] Codec AVOption b:a (set bitrate (in bits/s)) has not been used for any stream. The most likely reason is either wrong type (e.g. a video option with no video streams) or that it is a private option of some decoder which was not actually used for any stream.\nStream mapping:\n  Stream #0:0 -> #0:0 (h264 (native) -> vp9 (libvpx-vp9))\nPress [q] to stop, [?] for help\n[libvpx-vp9 @ 000001ab5d15cbc0] v1.15.2-100-g40561f514\nOutput #0, webm, to 'C:\\Users\\Peter\\Desktop\\stuff\\MIUN\\quantitative_research\\video_compression\\compressed_videos\\BVI-HD\\vp9\\3\\Hamster_1920x1080_60fps_vp9.webm':\n  Metadata:\n    major_brand     : isom\n    minor_version   : 512\n    compatible_brands: isomiso2avc1mp41\n    encoder         : Lavf62.3.100\n  Stream #0:0(und): Video: vp9, yuv420p(tv, progressive), 1920x1080, q=2-31, 3000 kb/s, 60 fps, 1k tbn (default)\n    Metadata:\n      encoder         : Lavc62.11.100 libvpx-vp9\n      handler_name    : VideoHandler\n      vendor_id       : [0][0][0][0]\n    Side data:\n      cpb: bitrate max/min/avg: 0/0/0 buffer size: 3000000 vbv_delay: N/A\nframe=    0 fps=0.0 q=0.0 size=       0KiB time=N/A bitrate=N/A speed=N/A elapsed=0:00:00.52    \nframe=    2 fps=1.8 q=57.0 size=       1KiB time=N/A bitrate=N/A speed=N/A elapsed=0:00:01.10    \nframe=    8 fps=4.5 q=42.0 size=       1KiB time=00:00:00.11 bitrate=  43.4kbits/s speed=0.0655x elapsed=0:00:01.78    \nframe=   12 fps=5.0 q=46.0 size=       1KiB time=00:00:00.20 bitrate=  25.3kbits/s speed=0.0832x elapsed=0:00:02.40    \nframe=   17 fps=5.6 q=44.0 size=       1KiB time=00:00:00.28 bitrate=  17.9kbits/s speed=0.093x elapsed=0:00:03.04    \nframe=   21 fps=5.7 q=44.0 size=       1KiB time=00:00:00.35 bitrate=  14.5kbits/s speed=0.0952x elapsed=0:00:03.67    \nframe=   24 fps=5.6 q=44.0 size=       1KiB time=00:00:00.40 bitrate=  12.7kbits/s speed=0.0929x elapsed=0:00:04.30    \nframe=   28 fps=5.7 q=44.0 size=       1KiB time=00:00:00.45 bitrate=  11.3kbits/s speed=0.0917x elapsed=0:00:04.90    \nframe=   31 fps=5.6 q=45.0 size=       1KiB time=00:00:00.51 bitrate=   9.8kbits/s speed=0.0926x elapsed=0:00:05.57    \nframe=   35 fps=5.7 q=46.0 size=       1KiB time=00:00:00.58 bitrate=   8.7kbits/s speed=0.0954x elapsed=0:00:06.11    \nframe=   38 fps=5.6 q=45.0 size=       1KiB time=00:00:00.63 bitrate=   8.0kbits/s speed=0.094x elapsed=0:00:06.73    \nframe=   42 fps=5.7 q=44.0 size=       1KiB time=00:00:00.70 bitrate=   7.2kbits/s speed=0.0947x elapsed=0:00:07.38    \nframe=   45 fps=5.7 q=44.0 size=       1KiB time=00:00:00.75 bitrate=   6.8kbits/s speed=0.0945x elapsed=0:00:07.93    \nframe=   48 fps=5.6 q=44.0 size=       1KiB time=00:00:00.80 bitrate=   6.3kbits/s speed=0.0941x elapsed=0:00:08.50    \nframe=   53 fps=5.8 q=42.0 size=       1KiB time=00:00:00.86 bitrate=   5.8kbits/s speed=0.0956x elapsed=0:00:09.06    \nframe=   58 fps=6.0 q=42.0 size=       1KiB time=00:00:00.95 bitrate=   5.3kbits/s speed=0.0985x elapsed=0:00:09.64    \nframe=   62 fps=6.0 q=41.0 size=       1KiB time=00:00:01.01 bitrate=   5.0kbits/s speed=0.0987x elapsed=0:00:10.29    \nframe=   64 fps=5.8 q=39.0 size=       1KiB time=00:00:01.06 bitrate=   4.7kbits/s speed=0.0971x elapsed=0:00:10.99    \nframe=   68 fps=5.9 q=42.0 size=       1KiB time=00:00:01.13 bitrate=   4.5kbits/s speed=0.0981x elapsed=0:00:11.55    \nframe=   72 fps=5.9 q=44.0 size=       1KiB time=00:00:01.20 bitrate=   4.2kbits/s speed=0.0991x elapsed=0:00:12.11    \nframe=   77 fps=6.1 q=45.0 size=       1KiB time=00:00:01.28 bitrate=   3.9kbits/s speed=0.101x elapsed=0:00:12.66    \nframe=   81 fps=6.1 q=47.0 size=       1KiB time=00:00:01.35 bitrate=   3.8kbits/s speed=0.102x elapsed=0:00:13.21    \nframe=   84 fps=6.1 q=47.0 size=       1KiB time=00:00:01.40 bitrate=   3.6kbits/s speed=0.102x elapsed=0:00:13.75    \nframe=   87 fps=6.1 q=47.0 size=       1KiB time=00:00:01.45 bitrate=   3.5kbits/s speed=0.101x elapsed=0:00:14.34    \nframe=   90 fps=6.0 q=47.0 size=       1KiB time=00:00:01.50 bitrate=   3.4kbits/s speed= 0.1x elapsed=0:00:14.97    \nframe=   93 fps=6.0 q=47.0 size=       1KiB time=00:00:01.55 bitrate=   3.3kbits/s speed=0.0993x elapsed=0:00:15.60    \nframe=   96 fps=5.9 q=48.0 size=       1KiB time=00:00:01.60 bitrate=   3.2kbits/s speed=0.0985x elapsed=0:00:16.25    \nframe=  101 fps=6.0 q=51.0 size=       1KiB time=00:00:01.68 bitrate=   3.0kbits/s speed=0.0998x elapsed=0:00:16.86    \nframe=  104 fps=5.9 q=51.0 size=       1KiB time=00:00:01.73 bitrate=   2.9kbits/s speed=0.099x elapsed=0:00:17.51    \nframe=  108 fps=6.0 q=50.0 size=       1KiB time=00:00:01.80 bitrate=   2.8kbits/s speed=0.0994x elapsed=0:00:18.09    \nframe=  112 fps=6.0 q=49.0 size=       1KiB time=00:00:01.85 bitrate=   2.7kbits/s speed=0.0989x elapsed=0:00:18.70    \nframe=  114 fps=5.9 q=49.0 size=       1KiB time=00:00:01.90 bitrate=   2.7kbits/s speed=0.0985x elapsed=0:00:19.29    \nframe=  118 fps=5.9 q=49.0 size=       1KiB time=00:00:01.96 bitrate=   2.6kbits/s speed=0.0989x elapsed=0:00:19.87    \nframe=  122 fps=6.0 q=47.0 size=       1KiB time=00:00:02.01 bitrate=   2.5kbits/s speed=0.0986x elapsed=0:00:20.44    \nframe=  125 fps=5.9 q=46.0 size=       1KiB time=00:00:02.08 bitrate=   2.4kbits/s speed=0.0988x elapsed=0:00:21.09    \nframe=  128 fps=5.9 q=47.0 size=       1KiB time=00:00:02.13 bitrate=   2.4kbits/s speed=0.0986x elapsed=0:00:21.62    \nframe=  132 fps=6.0 q=45.0 size=     512KiB time=00:00:02.20 bitrate=1906.5kbits/s speed=0.0992x elapsed=0:00:22.17    \nframe=  137 fps=6.0 q=45.0 size=     512KiB time=00:00:02.28 bitrate=1836.9kbits/s speed=0.101x elapsed=0:00:22.70    \nframe=  141 fps=6.1 q=45.0 size=     512KiB time=00:00:02.35 bitrate=1784.8kbits/s speed=0.101x elapsed=0:00:23.24    \nframe=  145 fps=6.1 q=44.0 size=     512KiB time=00:00:02.41 bitrate=1735.6kbits/s speed=0.101x elapsed=0:00:23.84    \nframe=  149 fps=6.1 q=44.0 size=     512KiB time=00:00:02.46 bitrate=1700.4kbits/s speed=0.101x elapsed=0:00:24.38    \nframe=  152 fps=6.1 q=30.0 size=     512KiB time=00:00:02.53 bitrate=1655.6kbits/s speed=0.101x elapsed=0:00:25.03    \nframe=  156 fps=6.1 q=42.0 size=     512KiB time=00:00:02.58 bitrate=1623.6kbits/s speed=0.101x elapsed=0:00:25.60    \nframe=  160 fps=6.1 q=42.0 size=     512KiB time=00:00:02.66 bitrate=1572.9kbits/s speed=0.101x elapsed=0:00:26.30    \nframe=  164 fps=6.1 q=29.0 size=     512KiB time=00:00:02.73 bitrate=1534.5kbits/s speed=0.102x elapsed=0:00:26.89    \nframe=  168 fps=6.1 q=43.0 size=     512KiB time=00:00:02.78 bitrate=1506.9kbits/s speed=0.101x elapsed=0:00:27.45    \nframe=  171 fps=6.1 q=44.0 size=     512KiB time=00:00:02.85 bitrate=1471.7kbits/s speed=0.101x elapsed=0:00:28.09    \nframe=  175 fps=6.1 q=43.0 size=     512KiB time=00:00:02.91 bitrate=1438.0kbits/s speed=0.101x elapsed=0:00:28.77    \nframe=  179 fps=6.1 q=43.0 size=     512KiB time=00:00:02.98 bitrate=1405.9kbits/s speed=0.101x elapsed=0:00:29.50    \nframe=  183 fps=6.1 q=44.0 size=     512KiB time=00:00:03.05 bitrate=1375.2kbits/s speed=0.101x elapsed=0:00:30.08    \nframe=  187 fps=6.1 q=44.0 size=     512KiB time=00:00:03.11 bitrate=1345.8kbits/s speed=0.102x elapsed=0:00:30.67    \nframe=  192 fps=6.1 q=43.0 size=     512KiB time=00:00:03.20 bitrate=1310.7kbits/s speed=0.102x elapsed=0:00:31.24    \nframe=  195 fps=6.1 q=44.0 size=     512KiB time=00:00:03.25 bitrate=1290.6kbits/s speed=0.102x elapsed=0:00:31.80    \nframe=  198 fps=6.1 q=44.0 size=     512KiB time=00:00:03.30 bitrate=1271.0kbits/s speed=0.102x elapsed=0:00:32.40    \nframe=  201 fps=6.1 q=44.0 size=     512KiB time=00:00:03.35 bitrate=1252.0kbits/s speed=0.101x elapsed=0:00:33.01    \nframe=  205 fps=6.1 q=46.0 size=     512KiB time=00:00:03.41 bitrate=1227.6kbits/s speed=0.102x elapsed=0:00:33.55    \nframe=  208 fps=6.1 q=47.0 size=     512KiB time=00:00:03.46 bitrate=1209.9kbits/s speed=0.102x elapsed=0:00:34.07    \nframe=  212 fps=6.1 q=34.0 size=     512KiB time=00:00:03.51 bitrate=1192.7kbits/s speed=0.101x elapsed=0:00:34.65    \nframe=  215 fps=6.1 q=49.0 size=     512KiB time=00:00:03.58 bitrate=1170.5kbits/s speed=0.102x elapsed=0:00:35.27    \nframe=  219 fps=6.1 q=51.0 size=     512KiB time=00:00:03.65 bitrate=1149.1kbits/s speed=0.102x elapsed=0:00:35.82    \nframe=  223 fps=6.1 q=52.0 size=     512KiB time=00:00:03.71 bitrate=1128.5kbits/s speed=0.102x elapsed=0:00:36.45    \nframe=  226 fps=6.1 q=52.0 size=     512KiB time=00:00:03.76 bitrate=1113.5kbits/s speed=0.102x elapsed=0:00:37.01    \nframe=  229 fps=6.1 q=54.0 size=     512KiB time=00:00:03.81 bitrate=1098.9kbits/s speed=0.102x elapsed=0:00:37.55    \nframe=  232 fps=6.1 q=54.0 size=     512KiB time=00:00:03.86 bitrate=1084.7kbits/s speed=0.101x elapsed=0:00:38.12    \nframe=  235 fps=6.1 q=54.0 size=     512KiB time=00:00:03.90 bitrate=1075.5kbits/s speed=0.101x elapsed=0:00:38.67    \nframe=  237 fps=6.0 q=56.0 size=     512KiB time=00:00:03.95 bitrate=1061.8kbits/s speed= 0.1x elapsed=0:00:39.30    \nframe=  239 fps=6.0 q=55.0 size=     512KiB time=00:00:03.98 bitrate=1053.0kbits/s speed=0.0997x elapsed=0:00:39.96    \nframe=  241 fps=6.0 q=55.0 size=     512KiB time=00:00:04.01 bitrate=1044.2kbits/s speed=0.0992x elapsed=0:00:40.49    \nframe=  245 fps=6.0 q=55.0 size=     512KiB time=00:00:04.06 bitrate=1031.4kbits/s speed=0.0989x elapsed=0:00:41.13    \nframe=  248 fps=5.9 q=40.0 size=     512KiB time=00:00:04.11 bitrate=1018.9kbits/s speed=0.0986x elapsed=0:00:41.77    \nframe=  251 fps=5.9 q=51.0 size=     512KiB time=00:00:04.16 bitrate=1006.6kbits/s speed=0.0981x elapsed=0:00:42.47    \nframe=  254 fps=5.9 q=50.0 size=     512KiB time=00:00:04.23 bitrate= 990.8kbits/s speed=0.098x elapsed=0:00:43.17    \nframe=  257 fps=5.9 q=40.0 size=     512KiB time=00:00:04.28 bitrate= 979.2kbits/s speed=0.0976x elapsed=0:00:43.88    \nframe=  261 fps=5.9 q=46.0 size=    1280KiB time=00:00:04.35 bitrate=2410.5kbits/s speed=0.0978x elapsed=0:00:44.46    \nframe=  265 fps=5.9 q=46.0 size=    1280KiB time=00:00:04.41 bitrate=2374.1kbits/s speed=0.0979x elapsed=0:00:45.11    \nframe=  268 fps=5.9 q=45.0 size=    1280KiB time=00:00:04.46 bitrate=2347.6kbits/s speed=0.0978x elapsed=0:00:45.67    \nframe=  273 fps=5.9 q=46.0 size=    1280KiB time=00:00:04.55 bitrate=2304.6kbits/s speed=0.0984x elapsed=0:00:46.25    \nframe=  276 fps=5.9 q=44.0 size=    1280KiB time=00:00:04.60 bitrate=2279.5kbits/s speed=0.0984x elapsed=0:00:46.77    \nframe=  276 fps=5.8 q=44.0 size=    1280KiB time=00:00:04.60 bitrate=2279.5kbits/s speed=0.0972x elapsed=0:00:47.31    \nframe=  276 fps=5.8 q=44.0 size=    1280KiB time=00:00:04.60 bitrate=2279.5kbits/s speed=0.0961x elapsed=0:00:47.84    \nframe=  276 fps=5.7 q=44.0 size=    1280KiB time=00:00:04.60 bitrate=2279.5kbits/s speed=0.0951x elapsed=0:00:48.36    \nframe=  276 fps=5.6 q=44.0 size=    1280KiB time=00:00:04.60 bitrate=2279.5kbits/s speed=0.0941x elapsed=0:00:48.90    \n[out#0/webm @ 000001ab5d149880] video:1641KiB audio:0KiB subtitle:0KiB other streams:0KiB global headers:0KiB muxing overhead: 0.169062%\nframe=  300 fps=6.1 q=40.0 Lsize=    1644KiB time=00:00:05.00 bitrate=2693.3kbits/s speed=0.101x elapsed=0:00:49.38    \n",
  "seconds": 49.972256660461426,
  "probe_out": {}
}